# xmcd
#
# Track frame offsets:
#	150
#	8987
#	17780
#	27931
#	37629
#	50780
#	59220
#	69632
#	79742
#	90054
#	98739
#	106818
#	120031
#	131577
#	143493
#	155418
#	164668
#	173823
#	187302
#	196685
#	206249
#
# Disc length: 2903 seconds
#
# Revision: 0
# Processed by: cddbd v1.5.2PL0 Copyright (c) Steve Scherf et al.
# Submitted via: audiograbber 1.83.01
#
DISCID=150b5515
DTITLE=Sonny James - Behind The Tear - Bigest Hits In Country Music
DYEAR=1900
DGENRE=Country
TTITLE0=Behind The Tear
TTITLE1=I'll Never Be Anything But In Love W
TTITLE2=Shackles And Chains
TTITLE3=Tonight I Found My True Love
TTITLE4=It's The Little Things
TTITLE5=On And On
TTITLE6=I'll Never Find Another You
TTITLE7=Yes Or No
TTITLE8=What Makes A Man Wander
TTITLE9=In Memory Of Louisa
TTITLE10=I Truly Do
TTITLE11=Born To Lose
TTITLE12=I Walk The Line
TTITLE13=He'll Have To Go
TTITLE14=Your Cheatin' Heart
TTITLE15=King Of The Road
TTITLE16=Tennessee Waltz
TTITLE17=You Are My Sunshine
TTITLE18=I Can't Stop Loving You
TTITLE19=Any Time
TTITLE20=Young Love
EXTD=
EXTT0=
EXTT1=
EXTT2=
EXTT3=
EXTT4=
EXTT5=
EXTT6=
EXTT7=
EXTT8=
EXTT9=
EXTT10=
EXTT11=
EXTT12=
EXTT13=
EXTT14=
EXTT15=
EXTT16=
EXTT17=
EXTT18=
EXTT19=
EXTT20=
PLAYORDER=
